<svg width="54.000000" height="27.000000" viewBox="0 0 54 27" fill="none" xmlns="http://www.w3.org/2000/svg" xmlns:xlink="http://www.w3.org/1999/xlink">
	<desc>
			Created with Pixso.
	</desc>
	<defs>
		<clipPath id="clip12_22">
			<rect id="Absolute cinema logo" rx="0.000000" width="53.000000" height="26.000000" transform="translate(0.500000 0.500000)" fill="white" fill-opacity="0"/>
		</clipPath>
	</defs>
	<rect id="Absolute cinema logo" rx="0.000000" width="53.000000" height="26.000000" transform="translate(0.500000 0.500000)" fill="#FFFFFF" fill-opacity="0"/>
	<g clip-path="url(#clip12_22)">
		<path id="Vector" d="M51 26.37C35.02 23.37 18.97 23.37 2.99 26.37C1.34 26.69 0 25.64 0 23.97C0 16.99 0 10 0 3.02C0 1.35 1.34 0.3 2.99 0.62C18.97 3.62 35.02 3.62 51 0.62C52.66 0.3 54 1.35 54 3.02L54 23.97C54 25.64 52.65 26.69 51 26.36L51 26.37Z" fill="#D0004C" fill-opacity="1.000000" fill-rule="nonzero"/>
		<path id="Vector" d="M12.32 11.65C12.28 11.73 11.98 13.2 11.98 13.3C11.97 13.78 12.5 15.62 12.26 15.9C12.18 15.99 11.3 15.16 11.24 14.94C10.92 15.67 11.97 15.87 12.34 16.22C12.53 16.39 12.54 16.68 12.56 16.7C12.65 16.76 13.93 15.88 14.27 15.81C15.01 15.67 18.12 15.76 18.58 16.23C18.76 16.42 18.79 17.33 18.7 17.41C18.61 17.51 16.22 17.83 16.02 17.79C15.04 17.54 15.28 16.97 15.26 16.18C15.25 15.92 15.12 15.75 14.94 15.95C14.73 16.19 15.13 17.61 15.07 17.68C15.04 17.72 14.49 17.77 14.44 17.84C14.4 17.91 14.6 18.14 14.45 18.39C14.21 18.76 12.72 19.75 12.26 20.15C12.06 20.33 11.96 20.6 11.81 20.73C11.33 21.14 10.15 22.22 9.56 22.18C9.46 22.17 9.49 21.86 9.41 21.86C9.17 21.86 8.89 22.04 8.45 22C8.04 21.96 6.79 21.61 6.8 21.1C6.81 20.92 7.19 21.16 7.12 20.87C6.48 20.83 6.47 21.37 5.78 21.33C5.56 21.32 4.04 20.71 3.99 20.63C3.92 20.5 4.02 20.26 3.96 20.16C3.15 18.56 3.55 17.53 3.51 15.87C3.46 14.16 2.59 13.65 4.56 12.55C5.94 11.79 8.09 11.05 9.64 11.3C9.8 10.66 8.53 11.11 8.38 10.96L8.42 8.76L9.37 8.54L8.43 8.45C8.61 7.59 8.23 4.21 8.74 3.72C9.77 2.71 9.95 5.53 9.73 5.79C9.69 5.83 8.81 5.28 8.62 5.93C9.02 5.91 9.34 5.72 9.71 5.97L10.12 11.46C10.61 11 12.24 11.73 12.33 11.66C12.76 11.27 11.27 11.1 11.21 11.07C11.13 11.01 11.53 9.17 11.62 9.13C11.83 9.04 12.69 9.11 12.81 9.42C12.89 9.65 12.81 11.31 12.65 11.55C12.55 11.7 12.34 11.64 12.33 11.65L12.32 11.65ZM8.68 12.54C8.19 12.58 7.63 12.81 7.19 13.01C6.8 13.18 4.62 14.21 5.01 14.69C5.05 14.74 5.89 13.97 6.08 13.95L8.68 12.54L8.68 12.54ZM10.67 16.2C9.97 16.19 7.53 18.24 7.63 18.74C7.75 19.41 8.01 18.63 8.13 18.46C8.83 17.44 9.76 16.98 10.67 16.2L10.67 16.2Z" fill="#FFFFFF" fill-opacity="1.000000" fill-rule="nonzero"/>
		<path id="Vector" d="M4.19 6.49C4.22 6.51 4.32 7.07 4.34 7.2C4.17 8.77 4.88 10.38 5.2 11.92L3.62 12.78C3.82 12.37 3.41 10.5 3.49 10.41C3.63 10.29 4.6 10.73 4.45 10.11L3.5 10.25L3.21 8.36L4.16 8.14C4.01 7.89 3.49 8.3 3.37 8.21C3.11 8.01 3.48 6 4.19 6.49L4.19 6.49Z" fill="#FFFFFF" fill-opacity="1.000000" fill-rule="nonzero"/>
		<path id="Vector" d="M13.24 6.87L12.9 6.77C13.11 7 12.89 8.79 12.82 8.87C12.76 8.94 11.91 8.44 11.64 8.61L12.49 4.61C13.68 4.62 13.25 6.08 13.24 6.87Z" fill="#FFFFFF" fill-opacity="1.000000" fill-rule="nonzero"/>
		<path id="Vector" d="M6.97 9.38L7.58 11.01C7.48 11.34 6.18 11.47 5.85 11.71C5.93 10.51 5.08 9.18 6.97 9.38Z" fill="#FFFFFF" fill-opacity="1.000000" fill-rule="nonzero"/>
		<path id="Vector" d="M6.24 4.35C6.33 4.47 6.61 6.23 6.57 6.41C6.49 6.75 5.59 6.78 5.29 6.82L5.03 4.7C5.22 4.4 5.99 4.03 6.24 4.35Z" fill="#FFFFFF" fill-opacity="1.000000" fill-rule="nonzero"/>
		<path id="Vector" d="M6.82 9.04L5.57 9.34L5.44 6.98L6.55 6.84L6.82 9.04Z" fill="#FFFFFF" fill-opacity="1.000000" fill-rule="nonzero"/>
		<path id="Vector" d="M43.64 15.26C43.56 15.21 43.12 14.83 43.13 14.78L44.07 12.86L43.65 12.78L43.46 13.48L42.75 14.51C42.85 13.84 42.97 13.01 42.96 12.34C42.95 11.82 42.44 9.34 42.72 9.13C42.88 9.01 44.14 9.03 44.29 9.35C44.32 9.41 44.53 10.56 44.48 10.61C44.43 10.66 42.93 10.86 43.2 11.25C43.24 11.31 43.97 10.92 44.13 10.89C44.7 10.82 44.81 11.35 45 11.38C45.08 11.39 45.23 11.22 45.43 11.25C46.97 11.48 49.43 13 50.72 13.88C50.84 13.96 51.09 13.95 51.14 14.02C51.35 14.3 50.74 18.77 50.89 19.55C50.79 20.15 50.21 21.38 49.72 21.71C49.56 21.81 48.23 21.75 47.93 21.71C47.33 21.63 46.68 21.36 46.17 21.31C45.15 21.22 44.35 21.97 43.45 21.11C42.04 19.75 42.14 18.54 41.63 16.94C41.23 15.66 39.87 15.1 38.69 14.67C38.16 14.48 37.65 14.71 38.07 13.91C38.38 13.32 41.09 12.96 41.18 14.19C41.21 14.52 40.7 15.12 40.36 14.81C40.32 15.92 41.7 14.55 41.39 13.98C42.24 14.55 43.34 14.89 43.58 15.97C43.79 15.84 43.62 15.47 43.63 15.26C43.99 15.46 44.32 15.32 44.76 15.53C45.68 15.96 46.46 17.22 47.45 17.55C47.61 17.16 47.36 17.3 47.2 17.17C46.75 16.78 44.13 14.53 43.71 14.83C43.69 14.84 43.64 15.16 43.63 15.25L43.64 15.26ZM47.09 13.12C47.51 12.88 46.28 12.5 46.19 12.45C46 12.32 45.37 11.59 45.32 11.63C45.17 11.76 45.24 11.96 45.42 12.12C45.65 12.34 46.84 13.25 47.09 13.12ZM49.96 15.82C49.88 15.52 49.45 15.33 49.19 15.18C48.49 14.76 47.65 14.46 46.91 14.1C46.77 14.51 46.97 14.35 47.19 14.46C48.1 14.93 49.06 15.31 49.96 15.82L49.96 15.82ZM44.05 16.2C43.86 15.91 42.95 17.19 42.76 17.3C42.59 17.39 42.43 17.18 42.4 17.22C42.31 17.32 42.44 17.63 42.54 17.68C42.8 17.79 44.11 16.31 44.05 16.21L44.05 16.2ZM47.31 20.72C47.39 20.66 47.63 18.99 47.68 18.68C47.69 18.65 47.49 18.38 47.44 18.42C47.3 18.54 47.43 19.26 47.39 19.5C47.37 19.58 46.72 21.21 47.31 20.72Z" fill="#FFFFFF" fill-opacity="1.000000" fill-rule="nonzero"/>
		<path id="Vector" d="M47.16 7.16C47.09 7.21 46.23 6.55 46 7.1C46.3 7.16 47.06 7.23 47.21 7.5C47.25 7.59 47.27 9.29 47.19 9.35C47.17 9.37 46.82 9.15 46.59 9.09C46.44 9.05 45.94 8.88 45.92 9.12C47.55 9.17 47.48 10.42 47.2 11.68C46.86 11.37 45.4 11.24 45.34 10.82C45.53 9.77 45.43 8.56 45.61 7.54C45.67 7.21 45.87 6.92 45.95 6.59C46.14 5.78 45.8 4.78 47.08 5.43C47.56 5.67 47.25 7.09 47.15 7.16L47.16 7.16Z" fill="#FFFFFF" fill-opacity="1.000000" fill-rule="nonzero"/>
		<path id="Vector" d="M48.9 10.39C48.89 10.68 49.37 10.68 49.54 10.87C49.83 11.2 49.53 12.26 49.51 12.68L48.19 11.99C48.32 10.88 48.63 9.79 48.78 8.69C48.87 8.07 48.58 6.71 49.47 7.72C49.66 7.94 49.76 8.45 49.77 8.74C49.78 8.87 49.64 9.03 49.64 9.14C49.69 9.9 50.29 10.98 48.9 10.39L48.9 10.39Z" fill="#FFFFFF" fill-opacity="1.000000" fill-rule="nonzero"/>
		<path id="Vector" d="M44.06 8.93C44.03 8.95 43.52 8.82 43.31 8.83C43.12 8.83 42.61 8.99 42.6 8.96C42.55 8.86 42.43 7.44 42.52 7.34C42.56 7.29 43.11 7.05 43.18 7.05C43.76 7.06 44.24 8.81 44.06 8.93L44.06 8.93Z" fill="#FFFFFF" fill-opacity="1.000000" fill-rule="nonzero"/>
		<path id="Vector" d="M51.21 11.14C51.42 11.37 51.32 12.83 50.82 11.9C50.55 12.53 51.07 12.29 51.15 12.41C51.22 12.51 50.96 13.29 50.96 13.53L49.9 12.9L50.72 10.86C50.84 10.99 51.12 11.04 51.21 11.14Z" fill="#FFFFFF" fill-opacity="1.000000" fill-rule="nonzero"/>
		<path id="Vector" d="M51.28 9.82C51.42 9.94 51.51 10.79 51.13 10.31C51.03 10.69 51.31 10.5 51.37 10.56C51.42 10.62 51.29 11.46 51.31 11.59L50.7 10.97L50.91 9.98C50.94 9.84 51.08 9.76 51.21 9.8C51.24 9.81 51.26 9.81 51.28 9.83L51.28 9.82Z" fill="#FFFFFF" fill-opacity="1.000000" fill-rule="nonzero"/>
		<path id="Vector" d="M43.78 7.65C43.74 7.67 43.35 6.81 43.16 6.83C42.98 6.84 42.55 7.87 42.48 7.7C42.47 7.65 42.1 6.09 42.11 6.02C42.14 5.46 42.6 5.15 43.08 5.48C43.36 5.68 43.85 7.61 43.78 7.65L43.78 7.65Z" fill="#FFFFFF" fill-opacity="1.000000" fill-rule="nonzero"/>
		<path id="Vector" d="M22.04 17.83L22.04 8.59C22.04 7.29 23.37 6.44 24.51 7.02L34.31 12.05C35.25 12.54 35.25 13.88 34.31 14.37L24.51 19.4C23.38 19.98 22.04 19.13 22.04 17.83Z" fill="#FFFFFF" fill-opacity="1.000000" fill-rule="nonzero"/>
	</g>
</svg>
